<svg version="1.1" xmlns="http://www.w3.org/2000/svg" xmlns:xlink="http://www.w3.org/1999/xlink" width="269.51835" height="154.57594" viewBox="0,0,269.51835,154.57594"><g transform="translate(-345.24082,-192.1838)"><g data-paper-data="{&quot;isPaintingLayer&quot;:true}" fill="#ffffff" fill-rule="nonzero" stroke="#ffffff" stroke-width="9.5" stroke-linejoin="miter" stroke-miterlimit="10" stroke-dasharray="" stroke-dashoffset="0" style="mix-blend-mode: normal"><path d="M553.45817,274.37066c0,37.35604 -34.30291,67.63908 -76.61772,67.63908c-42.3148,0 -76.61772,-30.28305 -76.61772,-67.63908c0,-37.35604 34.30291,-67.63908 76.61772,-67.63908c42.3148,0 76.61772,30.28305 76.61772,67.63908z" stroke-linecap="butt"/><path d="M452.14033,292.81099c-2.43722,4.38698 -6.82421,1.94976 -6.82421,1.94976l-2.78426,-0.83836c-0.55761,-0.55761 -1.75768,-0.88884 -1.67284,-1.67284c0.06764,-0.62526 2.47472,-0.01106 1.8758,-0.20296c-2.7593,-0.88401 -5.88305,-0.37873 -8.56718,-1.4699c-0.32082,-0.13042 -0.48833,-0.43901 -0.62419,-0.78757c-0.89777,1.36009 -2.43978,2.25748 -4.19138,2.25748c-2.77166,0 -5.01853,-2.24689 -5.01853,-5.01853c0,-0.96543 0.27259,-1.86719 0.74504,-2.63249c-0.15318,-0.39325 -0.31953,-0.77236 -0.6592,-0.97074c-3.8242,-2.2336 -7.08859,-2.9936 -10.32586,-6.23089c0,0 -3.54864,-3.54864 0,-7.09727c3.54864,-3.54864 7.09727,0 7.09727,0c1.11524,1.11524 1.9838,2.55025 3.34569,3.34569c0.8898,0.51969 2.17554,-0.07341 3.05689,0.46047c1.9946,1.20822 3.29365,3.38192 5.30732,4.55805c0.8898,0.51969 2.17554,-0.07341 3.05689,0.46047c1.9946,1.20822 3.08653,3.84655 5.30732,4.55805c0.57148,0.18309 -1.46369,-1.04557 -1.03938,-1.4699c2.33784,-2.33784 7.72603,3.13802 9.4036,4.81558l0.56142,-0.83836c0,0 4.38698,2.43722 1.94976,6.82421z" stroke-linecap="butt"/><path d="M537.01792,280.09876c1.91081,4.64053 -2.72971,6.55133 -2.72971,6.55133l-0.03501,0.58096c-1.73241,1.73241 -3.08379,3.21112 -5.30732,4.55805c-0.79737,0.48303 -1.92572,0.04358 -2.79242,0.34029c0.75149,0.87737 1.2054,2.01714 1.2054,3.26292c0,2.77166 -2.24689,5.01853 -5.01853,5.01853c-1.83329,0 -3.43698,-0.98301 -4.31271,-2.45069c-4.38969,1.42326 -9.71462,0.77785 -14.08856,0.77785c0,0 -5.01853,0 -5.01853,-5.01853c0,-5.01853 5.01853,-5.01853 5.01853,-5.01853c3.18039,0 6.90711,0.52801 10.03706,0c3.05019,-0.51455 2.71771,-2.27782 4.81558,-3.54864c4.30971,-2.61063 5.50428,-2.15858 8.36423,-5.01853l3.31068,-2.76474c0,0 4.64053,-1.91081 6.55133,2.72971z" stroke-linecap="butt"/><path d="M522.96018,319.65426c-0.84211,4.94737 -5.78948,4.10527 -5.78948,4.10527l-4.37936,-1.39875c-1.03728,-1.03728 -4.23552,-5.19037 -4.72973,-5.47902c-6.45931,-3.77265 -15.51721,-0.15387 -22.58339,-2.50927c-2.99619,-1.88064 -9.90865,-0.57888 -13.46861,-0.57888c-6.20395,0 -13.02184,0.75767 -19.15185,-0.25754c-5.00489,-0.82888 -8.29455,-3.08815 -13.46861,-3.08815c0,0 -5.01853,0 -5.01853,-5.01853c0,-5.01853 5.01853,-5.01853 5.01853,-5.01853c6.14951,0 10.79629,2.61699 16.64259,3.60322c10.58858,1.78626 21.97232,-2.0073 32.62046,0.83641c5.05294,1.6843 10.70142,-0.29496 15.97788,0.57888c6.80304,1.12665 10.62251,5.19808 15.25854,9.83411l-1.03367,-1.39875c0,0 4.94737,0.84211 4.10527,5.78948z" stroke-linecap="butt"/><path d="M405.06165,243.78233l-27.85292,-9.20562v65.85562l-26.67271,-64.43937l22.42395,-38.0027l52.87333,19.11937" data-paper-data="{&quot;index&quot;:null}" stroke-linecap="round"/><path d="M534.1667,220.98808l52.87333,-19.11937l22.42395,38.0027l-26.67271,64.43937v-65.85562l-27.85292,9.20562" data-paper-data="{&quot;index&quot;:null}" stroke-linecap="round"/></g></g></svg>