<svg version="1.1" xmlns="http://www.w3.org/2000/svg" xmlns:xlink="http://www.w3.org/1999/xlink" width="132.46108" height="103.92996" viewBox="0,0,132.46108,103.92996"><g transform="translate(-173.76948,-128.03503)"><g data-paper-data="{&quot;isPaintingLayer&quot;:true}" fill-rule="nonzero" stroke="#ffffff" stroke-linejoin="miter" stroke-miterlimit="10" stroke-dasharray="" stroke-dashoffset="0" style="mix-blend-mode: normal"><path d="M287.95559,187.53139c0,22.33086 -20.50575,40.43359 -45.80088,40.43359c-25.29513,0 -45.80088,-18.10274 -45.80088,-40.43359c0,-22.33086 20.50575,-40.43359 45.80088,-40.43359c25.29513,0 45.80088,18.10274 45.80088,40.43359z" data-paper-data="{&quot;origPos&quot;:null}" fill="#ff0000" stroke-width="8" stroke-linecap="butt"/><path d="M198.01471,176.41215l-17.18428,-37.40107l29.98825,19.5429z" fill="#ff0000" stroke-width="6" stroke-linecap="round"/><path d="M273.49073,157.54314l26.61878,-20.89069l-12.80397,37.40107z" fill="#ff0000" stroke-width="6" stroke-linecap="round"/><path d="M279.64496,193.22791c0,9.78634 -16.81023,17.71974 -37.54669,17.71974c-20.73647,0 -37.54669,-7.9334 -37.54669,-17.71974c0,-9.78634 16.81023,-17.71974 37.54669,-17.71974c20.73647,0 37.54669,7.9334 37.54669,17.71974z" fill="#ffffff" stroke-width="6" stroke-linecap="butt"/><path d="M247.91707,193.3237c0,5.81891 -2.94825,10.53606 -6.58506,10.53606c-3.63681,0 -6.58506,-4.71715 -6.58506,-10.53606c0,-5.81891 2.94825,-10.53606 6.58506,-10.53606c3.63681,0 6.58506,4.71716 6.58506,10.53606z" fill="#ff0000" stroke-width="6" stroke-linecap="butt"/></g></g></svg>