<svg version="1.1" xmlns="http://www.w3.org/2000/svg" xmlns:xlink="http://www.w3.org/1999/xlink" width="162.1204" height="88.86718" viewBox="0,0,162.1204,88.86718"><g transform="translate(-400.96426,-230.78908)"><g data-paper-data="{&quot;isPaintingLayer&quot;:true}" fill-rule="nonzero" stroke="#ad9600" stroke-linejoin="miter" stroke-miterlimit="10" stroke-dasharray="" stroke-dashoffset="0" style="mix-blend-mode: normal"><path d="M527.48561,275.22267c0,22.33086 -20.50575,40.43359 -45.80088,40.43359c-25.29513,0 -45.80088,-18.10274 -45.80088,-40.43359c0,-22.33086 20.50575,-40.43359 45.80088,-40.43359c25.29513,0 45.80088,18.10274 45.80088,40.43359z" fill="#ffde00" stroke-width="8" stroke-linecap="butt"/><path d="M478.02081,288.74974c-2.49373,4.17716 -6.98244,1.85651 -6.98244,1.85651l-2.84883,-0.79825c-0.57054,-0.53094 -1.79843,-0.84632 -1.71164,-1.59283c0.06922,-0.59535 2.53211,-0.01054 1.91929,-0.19324c-2.82329,-0.84173 -6.01945,-0.36062 -8.76583,-1.39959c-0.32826,-0.12417 -0.49966,-0.418 -0.63866,-0.74991c-0.91859,1.29503 -2.49635,2.1495 -4.28859,2.1495c-2.83592,0 -5.13491,-2.13941 -5.13491,-4.7785c0,-0.91926 0.27893,-1.77787 0.76231,-2.50658c-0.15674,-0.37444 -0.32694,-0.73541 -0.67449,-0.9243c-3.91288,-2.12676 -7.25294,-2.85042 -10.5653,-5.93287c0,0 -3.63092,-3.37891 0,-6.75781c3.63092,-3.3789 7.26184,0 7.26184,0c1.1411,1.06189 2.02979,2.42827 3.42327,3.18566c0.91044,0.49484 2.22598,-0.06989 3.12777,0.43846c2.04084,1.15044 3.37002,3.22017 5.4304,4.34004c0.91044,0.49484 2.22598,-0.06989 3.12777,0.43846c2.04084,1.15044 3.1581,3.66257 5.4304,4.34004c0.58473,0.17433 -1.49762,-0.99556 -1.06347,-1.39959c2.39206,-2.22603 7.90518,2.98793 9.62164,4.58525l0.57444,-0.79825c0,0 4.48871,2.32064 1.99498,6.49779z" fill="#755a00" stroke-width="0.5" stroke-linecap="butt"/><path d="M523.22588,273.65954c1.78512,4.43645 -2.55016,6.26323 -2.55016,6.26323l-0.03271,0.55541c-1.61846,1.65623 -2.88095,3.06991 -4.95824,4.3576c-0.74493,0.46177 -1.79904,0.04166 -2.60873,0.32533c0.70206,0.83879 1.12613,1.92845 1.12613,3.11944c0,2.64977 -2.09909,4.79784 -4.68843,4.79784c-1.7127,0 -3.2109,-0.93978 -4.02905,-2.34291c-4.10095,1.36067 -9.07561,0.74363 -13.16186,0.74363c0,0 -4.68843,0 -4.68843,-4.79784c0,-4.79784 4.68843,-4.79784 4.68843,-4.79784c2.97118,0 6.45278,0.5048 9.37686,0c2.84955,-0.49192 2.53894,-2.17766 4.49883,-3.39258c4.02623,-2.49583 5.14222,-2.06367 7.81405,-4.79784l3.09291,-2.64315c0,0 4.33528,-1.82678 6.1204,2.60967z" fill="#755a00" stroke-width="0.5" stroke-linecap="butt"/><path d="M509.22286,302.29249c-0.5034,2.95746 -3.46086,2.45407 -3.46086,2.45407l-2.61792,-0.83614c-0.62007,-0.62007 -2.53193,-3.10272 -2.82736,-3.27527c-3.86127,-2.25524 -9.27594,-0.09198 -13.5,-1.5c-1.79107,-1.12422 -5.92324,-0.34605 -8.05132,-0.34605c-3.70863,0 -7.78426,0.45292 -11.44868,-0.15395c-2.99185,-0.49549 -4.95836,-1.84605 -8.05132,-1.84605c0,0 -3,0 -3,-3c0,-3 3,-3 3,-3c3.67608,0 6.45386,1.56439 9.94868,2.15395c6.32969,1.0678 13.13471,-1.19993 19.5,0.5c3.02056,1.00685 6.39714,-0.17632 9.55132,0.34605c4.06676,0.6735 6.34997,3.10733 9.12132,5.87868l-0.61792,-0.83614c0,0 2.95746,0.5034 2.45407,3.46086z" fill="#755a00" stroke-width="0.5" stroke-linecap="butt"/><path d="M437.18184,259.4747l-23.15041,-14.37591l35.21683,-1.61229" fill="#d9ff00" stroke-width="8" stroke-linecap="round"/><path d="M514.80066,245.4341l35.21683,1.61229l-23.15041,14.37592" data-paper-data="{&quot;index&quot;:null}" fill="#d9ff00" stroke-width="8" stroke-linecap="round"/></g></g></svg>