<svg version="1.1" xmlns="http://www.w3.org/2000/svg" xmlns:xlink="http://www.w3.org/1999/xlink" width="229.21115" height="131.43747" viewBox="0,0,229.21115,131.43747"><g transform="translate(-365.39443,-204.44765)"><g data-paper-data="{&quot;isPaintingLayer&quot;:true}" fill-rule="nonzero" stroke="#ffffff" stroke-linejoin="miter" stroke-miterlimit="10" stroke-dasharray="" stroke-dashoffset="0" style="mix-blend-mode: normal"><path d="M543.12989,273.75615c0,32.10375 -29.4799,58.12898 -65.84521,58.12898c-36.36531,0 -65.84521,-26.02524 -65.84521,-58.12898c0,-32.10375 29.4799,-58.12898 65.84521,-58.12898c36.36531,0 65.84521,26.02524 65.84521,58.12898z" fill="#ffde00" stroke-width="8" stroke-linecap="butt"/><path d="M456.05742,289.60375c-2.09454,3.77017 -5.86471,1.67563 -5.86471,1.67563l-2.39279,-0.72047c-0.47921,-0.47921 -1.51054,-0.76386 -1.43764,-1.43764c0.05814,-0.53735 2.12677,-0.00952 1.61206,-0.17441c-2.37135,-0.75972 -5.05588,-0.32548 -7.36262,-1.26323c-0.27571,-0.11208 -0.41968,-0.37728 -0.53643,-0.67684c-0.77154,1.16886 -2.09674,1.94007 -3.60208,1.94007c-2.38196,0 -4.31292,-1.93097 -4.31292,-4.31292c0,-0.82969 0.23428,-1.60465 0.64028,-2.26236c-0.13164,-0.33796 -0.2746,-0.66376 -0.56652,-0.83425c-3.28652,-1.91955 -6.09192,-2.5727 -8.87404,-5.35482c0,0 -3.0497,-3.0497 0,-6.09939c3.0497,-3.0497 6.09939,0 6.09939,0c0.95843,0.95843 1.70487,2.19168 2.87528,2.87528c0.7647,0.44663 1.86965,-0.06308 2.62709,0.39574c1.71414,1.03835 2.83056,2.90642 4.56112,3.91718c0.7647,0.44663 1.86965,-0.06308 2.62709,0.39574c1.71414,1.03835 2.65256,3.30573 4.56112,3.91718c0.49113,0.15735 -1.25789,-0.89857 -0.89323,-1.26323c2.00915,-2.00915 6.63974,2.69681 8.08144,4.13851l0.48249,-0.72047c0,0 3.77017,2.09454 1.67563,5.86471z" fill="#ffffff" stroke-width="0.5" stroke-linecap="butt"/><path d="M529.00116,278.67887c1.64215,3.98806 -2.34591,5.6302 -2.34591,5.6302l-0.03009,0.49928c-1.48884,1.48884 -2.6502,2.75964 -4.56112,3.91718c-0.68527,0.4151 -1.65495,0.03745 -2.3998,0.29244c0.64583,0.75401 1.03594,1.73354 1.03594,2.80416c0,2.38196 -1.93097,4.31292 -4.31292,4.31292c-1.57552,0 -2.95373,-0.8448 -3.70635,-2.10611c-3.7725,1.22314 -8.34872,0.66847 -12.1077,0.66847c0,0 -4.31292,0 -4.31292,-4.31292c0,-4.31292 4.31292,-4.31292 4.31292,-4.31292c2.73321,0 5.93596,0.45378 8.62584,0c2.62132,-0.4422 2.33559,-1.95756 4.13851,-3.0497c3.70377,-2.24358 4.73037,-1.85509 7.1882,-4.31292l2.84519,-2.376c0,0 3.98806,-1.64215 5.6302,2.34591z" fill="#ffffff" stroke-width="0.5" stroke-linecap="butt"/><path d="M516.91993,312.67282c-0.72371,4.25176 -4.97547,3.52807 -4.97547,3.52807l-3.76363,-1.20207c-0.89144,-0.89144 -3.64001,-4.4606 -4.06473,-4.70866c-5.55112,-3.24222 -13.33547,-0.13223 -19.40815,-2.15646c-2.57492,-1.61622 -8.51549,-0.4975 -11.57491,-0.4975c-5.33168,0 -11.19097,0.65114 -16.45909,-0.22132c-4.30121,-0.71234 -7.12834,-2.65396 -11.57491,-2.65396c0,0 -4.31292,0 -4.31292,-4.31292c0,-4.31292 4.31292,-4.31292 4.31292,-4.31292c5.28488,0 9.27833,2.24903 14.30263,3.09661c9.09982,1.53511 18.88299,-1.72507 28.03399,0.71882c4.34248,1.44749 9.19679,-0.25348 13.73137,0.4975c5.84654,0.96825 9.12898,4.46722 13.11318,8.45143l-0.88835,-1.20207c0,0 4.25176,0.72371 3.52807,4.97547z" fill="#ffffff" stroke-width="0.5" stroke-linecap="butt"/><path d="M415.59804,247.46855l-23.93678,-7.91131v56.59626l-22.92251,-55.37914l19.27113,-32.65949l45.43929,16.43117" data-paper-data="{&quot;index&quot;:null}" fill="#ffde00" stroke-width="6" stroke-linecap="round"/><path d="M526.55081,227.87918l45.43929,-16.43117l19.27113,32.65949l-22.92249,55.37914v-56.59626l-23.93678,7.91131" data-paper-data="{&quot;index&quot;:null}" fill="#ffde00" stroke-width="6" stroke-linecap="round"/></g></g></svg>