<svg version="1.1" xmlns="http://www.w3.org/2000/svg" xmlns:xlink="http://www.w3.org/1999/xlink" width="165.07528" height="150.07606" viewBox="0,0,165.07528,150.07606"><g transform="translate(-157.46236,-104.96197)"><g data-paper-data="{&quot;isPaintingLayer&quot;:true}" fill-rule="nonzero" stroke="#ffffff" stroke-linecap="butt" stroke-linejoin="miter" stroke-miterlimit="10" stroke-dasharray="" stroke-dashoffset="0" style="mix-blend-mode: normal"><path d="M160.96236,251.53803v-143.07606h158.07528v143.07606z" fill="none" stroke-width="7"/><path d="M243.09892,172.7804c0,-9.99094 8.09926,-18.0902 18.0902,-18.0902c9.99094,0 18.0902,8.09926 18.0902,18.0902c0,9.99094 -8.09926,18.0902 -18.0902,18.0902c-9.99094,0 -18.0902,-8.09926 -18.0902,-18.0902z" fill="#000000" stroke-width="12.5"/><path d="M241.00797,192.47994c0,-9.99094 8.09926,-18.0902 18.0902,-18.0902c9.99094,0 18.0902,8.09926 18.0902,18.0902c0,9.99094 -8.09926,18.0902 -18.0902,18.0902c-9.99094,0 -18.0902,-8.09926 -18.0902,-18.0902z" fill="#000000" stroke-width="12.5"/><path d="M221.38835,202.15001c0,-9.99094 8.09926,-18.0902 18.0902,-18.0902c9.99094,0 18.0902,8.09926 18.0902,18.0902c0,9.99094 -8.09926,18.0902 -18.0902,18.0902c-9.99094,0 -18.0902,-8.09926 -18.0902,-18.0902z" fill="#000000" stroke-width="12.5"/><path d="M202.69246,189.93167c0,-9.99094 8.09926,-18.0902 18.0902,-18.0902c9.99094,0 18.0902,8.09926 18.0902,18.0902c0,9.99094 -8.09926,18.0902 -18.0902,18.0902c-9.99094,0 -18.0902,-8.09926 -18.0902,-18.0902z" fill="#000000" stroke-width="12.5"/><path d="M200.72068,170.7481c0,-9.99094 8.09926,-18.0902 18.0902,-18.0902c9.99094,0 18.0902,8.09926 18.0902,18.0902c0,9.99094 -8.09926,18.0902 -18.0902,18.0902c-9.99094,0 -18.0902,-8.09926 -18.0902,-18.0902z" fill="#000000" stroke-width="12.5"/><path d="M221.32082,157.85c0,-9.99094 8.09926,-18.0902 18.0902,-18.0902c9.99094,0 18.0902,8.09926 18.0902,18.0902c0,9.99094 -8.09926,18.0902 -18.0902,18.0902c-9.99094,0 -18.0902,-8.09926 -18.0902,-18.0902z" fill="#000000" stroke-width="12.5"/></g></g></svg>