<svg version="1.1" xmlns="http://www.w3.org/2000/svg" xmlns:xlink="http://www.w3.org/1999/xlink" width="165.07528" height="150.07606" viewBox="0,0,165.07528,150.07606"><g transform="translate(-157.46236,-104.96197)"><g data-paper-data="{&quot;isPaintingLayer&quot;:true}" fill-rule="nonzero" stroke="#ffffff" stroke-linecap="butt" stroke-linejoin="miter" stroke-miterlimit="10" stroke-dasharray="" stroke-dashoffset="0" style="mix-blend-mode: normal"><path d="M198.56905,179.66254c0,-13.63091 11.05004,-24.68096 24.68095,-24.68096c13.63091,0 24.68095,11.05004 24.68095,24.68096c0,13.63091 -11.05004,24.68095 -24.68095,24.68095c-13.63091,0 -24.68095,-11.05004 -24.68095,-24.68095z" fill="#000000" stroke-width="12.5"/><path d="M232.06904,180.33747c0,-13.63091 11.05004,-24.68096 24.68095,-24.68096c13.63091,0 24.68095,11.05004 24.68095,24.68096c0,13.63091 -11.05004,24.68095 -24.68095,24.68095c-13.63091,0 -24.68095,-11.05004 -24.68095,-24.68095z" fill="#000000" stroke-width="12.5"/><path d="M160.96236,251.53803v-143.07606h158.07528v143.07606z" fill="none" stroke-width="7"/></g></g></svg>