<svg version="1.1" xmlns="http://www.w3.org/2000/svg" xmlns:xlink="http://www.w3.org/1999/xlink" width="132.46109" height="103.92996" viewBox="0,0,132.46109,103.92996"><g transform="translate(-173.2995,-125.72631)"><g data-paper-data="{&quot;isPaintingLayer&quot;:true}" fill-rule="nonzero" stroke-linejoin="miter" stroke-miterlimit="10" stroke-dasharray="" stroke-dashoffset="0" style="mix-blend-mode: normal"><path d="M287.4856,185.22268c0,22.33086 -20.50575,40.43359 -45.80088,40.43359c-25.29513,0 -45.80088,-18.10274 -45.80088,-40.43359c0,-22.33086 20.50575,-40.43359 45.80088,-40.43359c25.29513,0 45.80088,18.10274 45.80088,40.43359z" fill="#9700bd" stroke="#56004b" stroke-width="8" stroke-linecap="butt"/><path d="M226.50631,196.24601c-1.45693,2.62247 -4.0794,1.16554 -4.0794,1.16554l-1.66439,-0.50115c-0.33333,-0.33333 -1.05071,-0.53133 -1,-1c0.04044,-0.37377 1.47935,-0.00662 1.12132,-0.12132c-1.64947,-0.52845 -3.51679,-0.2264 -5.12132,-0.87868c-0.19178,-0.07796 -0.29192,-0.26243 -0.37313,-0.4708c-0.53667,0.81304 -1.45846,1.34948 -2.50555,1.34948c-1.65685,0 -3,-1.34315 -3,-3c0,-0.57712 0.16296,-1.11617 0.44537,-1.57366c-0.09157,-0.23508 -0.19101,-0.4617 -0.39406,-0.58029c-2.28605,-1.33521 -4.23744,-1.78953 -6.17264,-3.72473c0,0 -2.12132,-2.12132 0,-4.24264c2.12132,-2.12132 4.24264,0 4.24264,0c0.66667,0.66667 1.18588,1.5245 2,2c0.53191,0.31067 1.3005,-0.04388 1.82736,0.27527c1.19233,0.72226 1.96889,2.02166 3.17264,2.72473c0.53191,0.31067 1.3005,-0.04388 1.82736,0.27527c1.19233,0.72226 1.84508,2.29941 3.17264,2.72473c0.34162,0.10945 -0.87497,-0.62503 -0.62132,-0.87868c1.39753,-1.39753 4.6185,1.87586 5.62132,2.87868l0.33561,-0.50115c0,0 2.62247,1.45693 1.16554,4.0794z" fill="#002f71" stroke="none" stroke-width="0.5" stroke-linecap="butt"/><path d="M277.65788,188.64684c1.14225,2.77403 -1.63178,3.91628 -1.63178,3.91628l-0.02093,0.34729c-1.03561,1.03561 -1.84344,1.91956 -3.17264,2.72473c-0.47666,0.28874 -1.15116,0.02605 -1.66926,0.20342c0.44923,0.52448 0.72058,1.20582 0.72058,1.95053c0,1.65685 -1.34315,3 -3,3c-1.09591,0 -2.05457,-0.58763 -2.57808,-1.46498c-2.62409,0.8508 -5.80724,0.46498 -8.42192,0.46498c0,0 -3,0 -3,-3c0,-3 3,-3 3,-3c1.90118,0 4.12896,0.31564 6,0c1.82335,-0.30759 1.6246,-1.36165 2.87868,-2.12132c2.57628,-1.5606 3.29037,-1.29037 5,-3l1.97907,-1.65271c0,0 2.77403,-1.14225 3.91628,1.63178z" fill="#002f71" stroke="none" stroke-width="0.5" stroke-linecap="butt"/><path d="M268.8413,212.29249c-0.5034,2.95746 -3.46086,2.45407 -3.46086,2.45407l-2.61792,-0.83614c-0.62007,-0.62007 -2.53193,-3.10272 -2.82736,-3.27527c-3.86127,-2.25524 -9.27594,-0.09198 -13.5,-1.5c-1.79107,-1.12422 -5.92324,-0.34605 -8.05132,-0.34605c-3.70863,0 -7.78426,0.45292 -11.44868,-0.15395c-2.99185,-0.49549 -4.95836,-1.84605 -8.05132,-1.84605c0,0 -3,0 -3,-3c0,-3 3,-3 3,-3c3.67608,0 6.45386,1.56439 9.94868,2.15395c6.32969,1.0678 13.13471,-1.19993 19.5,0.5c3.02056,1.00685 6.39714,-0.17632 9.55132,0.34605c4.06676,0.6735 6.34997,3.10733 9.12132,5.87868l-0.61792,-0.83614c0,0 2.95746,0.5034 2.45407,3.46086z" fill="#002f71" stroke="none" stroke-width="0.5" stroke-linecap="butt"/><path d="M197.54473,174.10344l-17.18428,-37.40107l29.98825,19.5429z" fill="#9700bd" stroke="#56004b" stroke-width="6" stroke-linecap="round"/><path d="M273.02077,155.23442l26.61878,-20.89069l-12.80397,37.40107z" fill="#9700bd" stroke="#56004b" stroke-width="6" stroke-linecap="round"/></g></g></svg>