<svg version="1.1" xmlns="http://www.w3.org/2000/svg" xmlns:xlink="http://www.w3.org/1999/xlink" width="165.07528" height="150.07606" viewBox="0,0,165.07528,150.07606"><g transform="translate(-157.46236,-104.96197)"><g data-paper-data="{&quot;isPaintingLayer&quot;:true}" fill-rule="nonzero" stroke="#ffffff" stroke-linecap="butt" stroke-linejoin="miter" stroke-miterlimit="10" stroke-dasharray="" stroke-dashoffset="0" style="mix-blend-mode: normal"><path d="M198.28805,164.77175c0,-11.78425 9.55303,-21.33729 21.33728,-21.33729c11.78425,0 21.33728,9.55303 21.33728,21.33729c0,11.78425 -9.55303,21.33728 -21.33728,21.33728c-11.78425,0 -21.33728,-9.55303 -21.33728,-21.33728z" fill="#000000" stroke-width="12.5"/><path d="M239.03739,164.95696c0,-11.78425 9.55303,-21.33729 21.33728,-21.33729c11.78425,0 21.33728,9.55303 21.33728,21.33729c0,11.78425 -9.55303,21.33728 -21.33728,21.33728c-11.78425,0 -21.33728,-9.55303 -21.33728,-21.33728z" fill="#000000" stroke-width="12.5"/><path d="M218.88308,195.22825c0,-11.78425 9.55303,-21.33729 21.33728,-21.33729c11.78425,0 21.33728,9.55303 21.33728,21.33729c0,11.78425 -9.55303,21.33728 -21.33728,21.33728c-11.78425,0 -21.33728,-9.55303 -21.33728,-21.33728z" fill="#000000" stroke-width="12.5"/><path d="M160.96236,251.53803v-143.07606h158.07528v143.07606z" fill="none" stroke-width="7"/></g></g></svg>