<svg version="1.1" xmlns="http://www.w3.org/2000/svg" xmlns:xlink="http://www.w3.org/1999/xlink" width="165.07528" height="150.07606" viewBox="0,0,165.07528,150.07606"><g transform="translate(-157.46236,-104.96197)"><g data-paper-data="{&quot;isPaintingLayer&quot;:true}" fill-rule="nonzero" stroke="#ffffff" stroke-linecap="butt" stroke-linejoin="miter" stroke-miterlimit="10" stroke-dasharray="" stroke-dashoffset="0" style="mix-blend-mode: normal"><path d="M194.9826,158.07603c0,-12.05564 9.77302,-21.82866 21.82866,-21.82866c12.05564,0 21.82866,9.77302 21.82866,21.82866c0,12.05564 -9.77302,21.82866 -21.82866,21.82866c-12.05564,0 -21.82866,-9.77302 -21.82866,-21.82866z" fill="#000000" stroke-width="12.5"/><path d="M241.36008,168.94568c0,-12.05564 9.77302,-21.82866 21.82866,-21.82866c12.05564,0 21.82866,9.77302 21.82866,21.82866c0,12.05564 -9.77302,21.82866 -21.82866,21.82866c-12.05564,0 -21.82866,-9.77302 -21.82866,-21.82866z" fill="#000000" stroke-width="12.5"/><path d="M203.32269,201.92397c0,-12.05564 9.77302,-21.82866 21.82866,-21.82866c12.05564,0 21.82866,9.77302 21.82866,21.82866c0,12.05564 -9.77302,21.82866 -21.82866,21.82866c-12.05564,0 -21.82866,-9.77302 -21.82866,-21.82866z" fill="#000000" stroke-width="12.5"/><path d="M236.07767,196.71458c0,-12.05564 9.77302,-21.82866 21.82866,-21.82866c12.05564,0 21.82866,9.77302 21.82866,21.82866c0,12.05564 -9.77302,21.82866 -21.82866,21.82866c-12.05564,0 -21.82866,-9.77302 -21.82866,-21.82866z" fill="#000000" stroke-width="12.5"/><path d="M218.13906,178.9993c0,-12.05564 9.77302,-21.82866 21.82866,-21.82866c12.05564,0 21.82866,9.77302 21.82866,21.82866c0,12.05564 -9.77302,21.82866 -21.82866,21.82866c-12.05564,0 -21.82866,-9.77302 -21.82866,-21.82866z" fill="#000000" stroke-width="12.5"/><path d="M160.96236,251.53803v-143.07606h158.07528v143.07606z" fill="none" stroke-width="7"/></g></g></svg>