<svg version="1.1" xmlns="http://www.w3.org/2000/svg" xmlns:xlink="http://www.w3.org/1999/xlink" width="247.42941" height="142.28977" viewBox="0,0,247.42941,142.28977"><g transform="translate(-356.28529,-198.32689)"><g data-paper-data="{&quot;isPaintingLayer&quot;:true}" fill="#ffffff" fill-rule="nonzero" stroke="#ffffff" stroke-width="9.5" stroke-linejoin="miter" stroke-miterlimit="10" stroke-dasharray="" stroke-dashoffset="0" style="mix-blend-mode: normal"><path d="M547.19151,273.9978c0,34.16923 -31.37656,61.86885 -70.08153,61.86885c-38.70496,0 -70.08153,-27.69963 -70.08153,-61.86885c0,-34.16923 31.37656,-61.86885 70.08153,-61.86885c38.70496,0 70.08153,27.69963 70.08153,61.86885z" stroke-linecap="butt"/><path d="M454.51702,290.865c-2.2293,4.01273 -6.24204,1.78343 -6.24204,1.78343l-2.54674,-0.76684c-0.51004,-0.51004 -1.60773,-0.81301 -1.53013,-1.53013c0.06187,-0.57192 2.2636,-0.01012 1.71578,-0.18565c-2.52391,-0.8086 -5.38117,-0.34642 -7.83632,-1.3445c-0.29345,-0.11929 -0.44667,-0.40156 -0.57094,-0.72038c-0.82118,1.24406 -2.23164,2.0649 -3.83382,2.0649c-2.53521,0 -4.5904,-2.05521 -4.5904,-4.5904c0,-0.88307 0.24934,-1.7079 0.68148,-2.40791c-0.14011,-0.3597 -0.29227,-0.70647 -0.60296,-0.88793c-3.49796,-2.04305 -6.48387,-2.73822 -9.44497,-5.69934c0,0 -3.24591,-3.24591 0,-6.49181c3.24591,-3.24591 6.49181,0 6.49181,0c1.0201,1.0201 1.81456,2.33269 3.06027,3.06027c0.81389,0.47536 1.98995,-0.06715 2.79611,0.42119c1.82444,1.10515 3.01267,3.09341 4.85456,4.16921c0.81389,0.47536 1.98995,-0.06715 2.79611,0.42119c1.82444,1.10515 2.82322,3.5184 4.85456,4.16921c0.52273,0.16747 -1.33882,-0.95637 -0.95071,-1.3445c2.1384,-2.1384 7.06693,2.87032 8.60139,4.40477l0.51353,-0.76684c0,0 4.01273,2.2293 1.78343,6.24204z" stroke-linecap="butt"/><path d="M532.15377,279.23724c1.7478,4.24465 -2.49684,5.99244 -2.49684,5.99244l-0.03202,0.5314c-1.58462,1.58462 -2.82071,2.93718 -4.85456,4.16921c-0.72935,0.44182 -1.76144,0.03986 -2.5542,0.31126c0.68738,0.80252 1.10257,1.84506 1.10257,2.98456c0,2.53521 -2.05521,4.5904 -4.5904,4.5904c-1.67689,0 -3.14377,-0.89915 -3.9448,-2.24162c-4.01521,1.30184 -8.88587,0.71149 -12.88668,0.71149c0,0 -4.5904,0 -4.5904,-4.5904c0,-4.5904 4.5904,-4.5904 4.5904,-4.5904c2.90907,0 6.31787,0.48297 9.18081,0c2.78998,-0.47065 2.48586,-2.0835 4.40477,-3.24591c3.94205,-2.38792 5.03471,-1.97443 7.65068,-4.5904l3.02825,-2.52888c0,0 4.24465,-1.7478 5.99244,2.49684z" stroke-linecap="butt"/><path d="M519.29528,315.41829c-0.77027,4.52531 -5.29558,3.75505 -5.29558,3.75505l-4.00576,-1.27942c-0.94879,-0.94879 -3.87419,-4.74758 -4.32624,-5.01161c-5.90827,-3.45081 -14.19345,-0.14074 -20.65682,-2.29521c-2.74059,-1.7202 -9.06335,-0.5295 -12.31961,-0.5295c-5.6747,0 -11.91096,0.69303 -17.51802,-0.23557c-4.57793,-0.75817 -7.58695,-2.8247 -12.31961,-2.8247c0,0 -4.5904,0 -4.5904,-4.5904c0,-4.5904 4.5904,-4.5904 4.5904,-4.5904c5.6249,0 9.87527,2.39374 15.22282,3.29583c9.68528,1.63388 20.09788,-1.83606 29.83764,0.76506c4.62188,1.54061 9.78849,-0.2698 14.61482,0.5295c6.22268,1.03054 9.71631,4.75464 13.95685,8.99517l-0.94549,-1.27942c0,0 4.52531,0.77027 3.75505,5.29558z" stroke-linecap="butt"/><path d="M411.45458,246.01893l-25.47681,-8.4203v60.23753l-24.39728,-58.9421l20.51098,-34.76072l48.36275,17.48831" data-paper-data="{&quot;index&quot;:null}" stroke-linecap="round"/><path d="M529.54578,225.16924l48.36275,-17.48831l20.51098,34.76072l-24.39728,58.9421v-60.23753l-25.47681,8.4203" data-paper-data="{&quot;index&quot;:null}" stroke-linecap="round"/></g></g></svg>