<svg xmlns="http://www.w3.org/2000/svg" xmlns:xlink="http://www.w3.org/1999/xlink" version="1.1" id="Layer_1" x="0px" y="0px" viewBox="0 0 102.7 99.8" style="enable-background:new 0 0 102.7 99.8;" xml:space="preserve">
<style type="text/css">
	.st0{fill:none;}
	.st1{fill:#FFFFFF;stroke:#000000;stroke-width:8;stroke-miterlimit:10;}
</style>
<g transform="translate(-178.25292,-138.43152)">
	<g>
		<g>
			<path class="st0" d="M0,0"/>
			<path class="st0" d="M0,0"/>
		</g>
		<path class="st0" d="M0,0"/>
		<path class="st0" d="M0,0"/>
		<g>
			<path class="st0" d="M0,0"/>
			<path class="st0" d="M0,0"/>
		</g>
		<path class="st0" d="M0,0"/>
		<g>
			<path class="st0" d="M0,0"/>
			<path class="st0" d="M0,0"/>
			<path class="st0" d="M0,0"/>
			<path class="st0" d="M0,0"/>
			<path class="st0" d="M0,0"/>
			<path class="st0" d="M0,0"/>
			<path class="st0" d="M0,0"/>
			<path class="st0" d="M0,0"/>
			<g>
				<path class="st0" d="M0,0"/>
				<path class="st0" d="M0,0"/>
			</g>
			<g>
				<path class="st0" d="M0,0"/>
				<path class="st0" d="M0,0"/>
			</g>
		</g>
		<path class="st1" d="M277,188.4c0,25.4-21.2,45.9-47.4,45.9s-47.4-20.6-47.4-45.9s21.2-45.9,47.4-45.9S277,163,277,188.4z"/>
		<path d="M218.6,170.3c-0.6,2.9-3.4,2.3-3.4,2.3l-2.1-1.3c-1.8-1.3-3.9-1.6-6-1.6c0.3,0.9,0.4,1.8,0.4,2.8c0,4.7-3.6,8.5-8,8.5    c-4.4,0-8-3.8-8-8.5c0-2,0.6-3.8,1.7-5.3c-0.6-0.2-1.2-0.3-1.8-0.4c0,0-2.8-0.4-2.4-3.3c0.3-3,3.1-2.6,3.1-2.6    c3.3,0.4,5.6,1.7,8.6,2.8c2.6,0.9,6.4-0.1,9.2,0.1c2.4,0.2,4.2,1.1,6.2,2.6l0.2,0.4C216.5,166.7,219.3,167.3,218.6,170.3    L218.6,170.3z"/>
		<path d="M274.8,175.4c0,3-2.9,3-2.9,3l-1.6-1.1c-0.7-0.4-1.3-0.6-1.9-0.7c0.4,1,0.7,2.2,0.7,3.4c0,4.7-3.6,8.5-8,8.5s-8-3.8-8-8.5    c0-0.5,0-0.9,0.1-1.3c-4.1,0.5-8.2,0.1-12.3-0.7c0,0-2.8-0.5-2.3-3.5s3.2-2.5,3.2-2.5c3.3,0.6,6.6,1,10,0.8    c4.6-0.3,8.8-2.4,13.3-2.5c2.9,0,4.9,0.1,7.6,1.6l-0.8,0.5C272,172.4,274.8,172.4,274.8,175.4L274.8,175.4z"/>
		<path d="M250,186.9c-0.4,3-3.2,2.5-3.2,2.5l-1.3-0.5c-3.2-1.1-6.8-2.5-10.1-3c-8.6-1.6-17.3,0.6-25.8-2.4c0,0-2.7-0.9-1.8-3.8    c0.9-2.8,3.6-1.9,3.6-1.9c8.1,2.9,16.5,1,24.8,2.1c3.6,0.6,7.6,2.1,11.1,3.3l0.3,0.2C247.6,183.5,250.4,184,250,186.9L250,186.9z"/>
	</g>
</g>
</svg>