<svg version="1.1" xmlns="http://www.w3.org/2000/svg" xmlns:xlink="http://www.w3.org/1999/xlink" width="470.80724" height="18.48542"><g transform="translate(-3.93805,-171.30917)"><g data-paper-data="{&quot;isPaintingLayer&quot;:true}" fill="#ffffff" fill-rule="nonzero" stroke="none" stroke-width="0" stroke-linecap="butt" stroke-linejoin="miter" stroke-miterlimit="10" stroke-dasharray="" stroke-dashoffset="0" font-family="none" font-weight="none" font-size="none" text-anchor="none" style="mix-blend-mode: normal"><path d="M94.47151,186.06306l-43.04001,-0.28353l0.09288,-14.09932l43.04001,0.28353z" data-paper-data="{&quot;origPos&quot;:null,&quot;origRot&quot;:0}"/><path d="M46.97806,185.69201l-43.04001,-0.28353l0.09288,-14.09932l43.04001,0.28353z" data-paper-data="{&quot;origPos&quot;:null,&quot;origRot&quot;:0,&quot;index&quot;:null}"/><path d="M142.06391,186.45884l-43.04001,-0.28353l0.09288,-14.09932l43.04001,0.28353z" data-paper-data="{&quot;origPos&quot;:null,&quot;origRot&quot;:0}"/><path d="M94.57046,186.08779l-43.04001,-0.28353l0.09288,-14.09932l43.04001,0.28353z" data-paper-data="{&quot;origPos&quot;:null,&quot;origRot&quot;:0,&quot;index&quot;:null}"/><path d="M189.31001,187.39881l-43.04001,-0.28353l0.09288,-14.09932l43.04001,0.28353z" data-paper-data="{&quot;origPos&quot;:null,&quot;origRot&quot;:0}"/><path d="M141.81655,187.02777l-43.04001,-0.28353l0.09288,-14.09932l43.04001,0.28353z" data-paper-data="{&quot;origPos&quot;:null,&quot;origRot&quot;:0,&quot;index&quot;:null}"/><path d="M236.90241,187.79459l-43.04001,-0.28353l0.09288,-14.09932l43.04001,0.28353z" data-paper-data="{&quot;origPos&quot;:null,&quot;origRot&quot;:0}"/><path d="M189.40895,187.42355l-43.04001,-0.28353l0.09288,-14.09932l43.04001,0.28353z" data-paper-data="{&quot;origPos&quot;:null,&quot;origRot&quot;:0,&quot;index&quot;:null}"/><path d="M284.47152,188.06306l-43.04001,-0.28352l0.09288,-14.09931l43.04001,0.28352z" data-paper-data="{&quot;origPos&quot;:null,&quot;origRot&quot;:0}"/><path d="M236.97806,187.69202l-43.04001,-0.28353l0.09288,-14.09932l43.04001,0.28353z" data-paper-data="{&quot;origPos&quot;:null,&quot;origRot&quot;:0,&quot;index&quot;:null}"/><path d="M332.06392,188.45884l-43.04001,-0.28352l0.09288,-14.09931l43.04001,0.28352z" data-paper-data="{&quot;origPos&quot;:null,&quot;origRot&quot;:0}"/><path d="M284.57046,188.0878l-43.04001,-0.28353l0.09288,-14.09931l43.04001,0.28353z" data-paper-data="{&quot;origPos&quot;:null,&quot;origRot&quot;:0,&quot;index&quot;:null}"/><path d="M379.31001,189.39881l-43.04001,-0.28353l0.09288,-14.09932l43.04001,0.28353z" data-paper-data="{&quot;origPos&quot;:null,&quot;origRot&quot;:0}"/><path d="M331.81655,189.02777l-43.04001,-0.28352l0.09288,-14.09931l43.04001,0.28352z" data-paper-data="{&quot;origPos&quot;:null,&quot;origRot&quot;:0,&quot;index&quot;:null}"/><path d="M426.90241,189.79459l-43.04001,-0.28353l0.09288,-14.09931l43.04001,0.28353z" data-paper-data="{&quot;origPos&quot;:null,&quot;origRot&quot;:0}"/><path d="M379.40895,189.42355l-43.04001,-0.28352l0.09287,-14.09931l43.04001,0.28352z" data-paper-data="{&quot;origPos&quot;:null,&quot;origRot&quot;:0,&quot;index&quot;:null}"/><path d="M427.06001,188.64881l-43.04001,-0.28353l0.09288,-14.09932l43.04001,0.28353z" data-paper-data="{&quot;origPos&quot;:null,&quot;origRot&quot;:0}"/><path d="M474.65241,189.04459l-43.04001,-0.28353l0.09288,-14.09931l43.04001,0.28353z" data-paper-data="{&quot;origPos&quot;:null,&quot;origRot&quot;:0}"/><path d="M427.15895,188.67355l-43.04001,-0.28352l0.09287,-14.09931l43.04001,0.28352z" data-paper-data="{&quot;origPos&quot;:null,&quot;origRot&quot;:0,&quot;index&quot;:null}"/></g></g></svg>