<svg version="1.1" xmlns="http://www.w3.org/2000/svg" xmlns:xlink="http://www.w3.org/1999/xlink" width="249.22514" height="207.33279" viewBox="0,0,249.22514,207.33279"><g transform="translate(-10.39708,8.33152)"><g data-paper-data="{&quot;isPaintingLayer&quot;:true}" fill-rule="nonzero" stroke-linecap="butt" stroke-linejoin="miter" stroke-miterlimit="10" stroke-dasharray="" stroke-dashoffset="0" style="mix-blend-mode: normal"><g fill="none" stroke="none" stroke-width="1"><path d="M10.39708,-8.33152"/><path d="M10.39708,-8.33152"/></g><path d="M10.39708,-8.33152" fill="none" stroke="none" stroke-width="1"/><path d="M10.39708,-8.33152" fill="none" stroke="none" stroke-width="1"/><g fill="none" stroke="none" stroke-width="1"><path d="M10.39708,-8.33152"/><path d="M10.39708,-8.33152"/></g><path d="M10.39708,-8.33152" fill="none" stroke="none" stroke-width="1"/><g fill="none" stroke="none" stroke-width="1"><path d="M10.39708,-8.33152"/><path d="M10.39708,-8.33152"/><path d="M10.39708,-8.33152"/><path d="M10.39708,-8.33152"/><path d="M10.39708,-8.33152"/><path d="M10.39708,-8.33152"/><path d="M10.39708,-8.33152"/><path d="M10.39708,-8.33152"/><g><path d="M10.39708,-8.33152"/><path d="M10.39708,-8.33152"/></g><g><path d="M10.39708,-8.33152"/><path d="M10.39708,-8.33152"/></g></g><path d="M259.62222,180c0,10.51486 -8.77618,19.00127 -19.62222,19.00127c-10.84604,0 -19.62222,-8.5278 -19.62222,-19.00127c0,-10.47346 8.77618,-19.00127 19.62222,-19.00127c10.84604,0 19.62222,8.4864 19.62222,19.00127z" fill="#ff0000" stroke="#000000" stroke-width="0"/></g></g></svg>