<svg version="1.1" xmlns="http://www.w3.org/2000/svg" xmlns:xlink="http://www.w3.org/1999/xlink" width="165.07528" height="150.07606" viewBox="0,0,165.07528,150.07606"><g transform="translate(-157.46235,-104.96197)"><g data-paper-data="{&quot;isPaintingLayer&quot;:true}" fill-rule="nonzero" stroke="#ffffff" stroke-linecap="butt" stroke-linejoin="miter" stroke-miterlimit="10" stroke-dasharray="" stroke-dashoffset="0" style="mix-blend-mode: normal"><path d="M198.70676,163.23425c0,-11.05831 8.96453,-20.02284 20.02284,-20.02284c11.05831,0 20.02284,8.96453 20.02284,20.02284c0,11.05831 -8.96453,20.02284 -20.02284,20.02284c-11.05831,0 -20.02284,-8.96453 -20.02284,-20.02284z" fill="#000000" stroke-width="12.5"/><path d="M241.24757,161.5285c0,-11.05831 8.96453,-20.02284 20.02284,-20.02284c11.05831,0 20.02284,8.96453 20.02284,20.02284c0,11.05831 -8.96453,20.02284 -20.02284,20.02284c-11.05831,0 -20.02284,-8.96453 -20.02284,-20.02284z" fill="#000000" stroke-width="12.5"/><path d="M203.91672,197.71911c0,-11.05831 8.96453,-20.02284 20.02284,-20.02284c11.05831,0 20.02284,8.96453 20.02284,20.02284c0,11.05831 -8.96453,20.02284 -20.02284,20.02284c-11.05831,0 -20.02284,-8.96453 -20.02284,-20.02284z" fill="#000000" stroke-width="12.5"/><path d="M236.42012,198.4715c0,-11.05831 8.96453,-20.02284 20.02284,-20.02284c11.05831,0 20.02284,8.96453 20.02284,20.02284c0,11.05831 -8.96453,20.02284 -20.02284,20.02284c-11.05831,0 -20.02284,-8.96453 -20.02284,-20.02284z" fill="#000000" stroke-width="12.5"/><path d="M160.96236,251.53804v-143.07606h158.07528v143.07606z" fill="none" stroke-width="7"/></g></g></svg>