<svg version="1.1" xmlns="http://www.w3.org/2000/svg" xmlns:xlink="http://www.w3.org/1999/xlink" width="132.3445" height="103.92629" viewBox="0,0,132.3445,103.92629"><g transform="translate(-173.37865,-125.72371)"><g data-paper-data="{&quot;isPaintingLayer&quot;:true}" fill-rule="nonzero" stroke-linejoin="miter" stroke-miterlimit="10" stroke-dasharray="" stroke-dashoffset="0" style="mix-blend-mode: normal"><path d="M197.5,174.15l-17.1,-37.4l30,19.5z" fill="#9700bd" stroke="#56004b" stroke-width="6" stroke-linecap="round"/><path d="M273,155.25l26.6,-20.9l-12.8,37.4z" fill="#9700bd" stroke="#56004b" stroke-width="6" stroke-linecap="round"/><path d="M287.5,185.25c0,22.3 -20.5,40.4 -45.8,40.4c-25.3,0 -45.8,-18.1 -45.8,-40.4c0,-22.3 20.5,-40.4 45.8,-40.4c25.3,0 45.8,18.1 45.8,40.4zM270.5,172.15c0,-5.4 -4.4,-9.7 -9.8,-9.7c-5.4,0 -9.8,4.4 -9.8,9.7c0,5.4 4.4,9.7 9.8,9.7c5.4,0 9.8,-4.3 9.8,-9.7z" fill="#9700bd" stroke="#56004b" stroke-width="8" stroke-linecap="butt"/><path d="M226.5,196.25c-1.5,2.6 -4.1,1.2 -4.1,1.2l-1.7,-0.5c-0.3,-0.3 -1.1,-0.5 -1,-1c0,-0.4 1.5,0 1.1,-0.1c-1.6,-0.5 -3.5,-0.2 -5.1,-0.9c-0.2,-0.1 -0.3,-0.3 -0.4,-0.5c-0.5,0.8 -1.5,1.3 -2.5,1.3c-1.7,0 -3,-1.3 -3,-3c0,-0.6 0.2,-1.1 0.4,-1.6c-0.1,-0.2 -0.2,-0.5 -0.4,-0.6c-2.3,-1.3 -4.2,-1.8 -6.2,-3.7c0,0 -2.1,-2.1 0,-4.2c2.1,-2.1 4.2,0 4.2,0c0.7,0.7 1.2,1.5 2,2c0.5,0.3 1.3,0 1.8,0.3c1.2,0.7 2,2 3.2,2.7c0.5,0.3 1.3,0 1.8,0.3c1.2,0.7 1.8,2.3 3.2,2.7c0.3,0.1 -0.9,-0.6 -0.6,-0.9c1.4,-1.4 4.6,1.9 5.6,2.9l0.3,-0.5c0.2,0 2.9,1.5 1.4,4.1z" fill="#002f71" stroke="none" stroke-width="1" stroke-linecap="butt"/><path d="M277.7,188.65c1.1,2.8 -1.6,3.9 -1.6,3.9v0.3c-1,1 -1.8,1.9 -3.2,2.7c-0.5,0.3 -1.2,0 -1.7,0.2c0.4,0.5 0.7,1.2 0.7,2c0,1.7 -1.3,3 -3,3c-1.1,0 -2.1,-0.6 -2.6,-1.5c-2.6,0.9 -5.8,0.5 -8.4,0.5c0,0 -3,0 -3,-3c0,-3 3,-3 3,-3c1.9,0 4.1,0.3 6,0c1.8,-0.3 1.6,-1.4 2.9,-2.1c2.6,-1.6 3.3,-1.3 5,-3l2,-1.7c-0.1,0.1 2.7,-1.1 3.9,1.7z" fill="#002f71" stroke="none" stroke-width="1" stroke-linecap="butt"/><path d="M268.8,212.35c-0.5,3 -3.5,2.5 -3.5,2.5l-2.6,-0.8c-0.6,-0.6 -2.5,-3.1 -2.8,-3.3c-3.9,-2.3 -9.3,-0.1 -13.5,-1.5c-1.8,-1.1 -5.9,-0.3 -8.1,-0.3c-3.7,0 -7.8,0.5 -11.4,-0.2c-3,-0.5 -5,-1.8 -8.1,-1.8c0,0 -3,0 -3,-3c0,-3 3,-3 3,-3c3.7,0 6.5,1.6 9.9,2.2c6.3,1.1 13.1,-1.2 19.5,0.5c3,1 6.4,-0.2 9.6,0.3c4.1,0.7 6.3,3.1 9.1,5.9l-0.6,-0.8c0.1,-0.2 3,0.3 2.5,3.3z" fill="#002f71" stroke="none" stroke-width="1" stroke-linecap="butt"/></g></g></svg>