<svg version="1.1" xmlns="http://www.w3.org/2000/svg" xmlns:xlink="http://www.w3.org/1999/xlink" width="281" height="238.3" viewBox="0,0,281,238.3"><g transform="translate(-10.39708,8.33152)"><g data-paper-data="{&quot;isPaintingLayer&quot;:true}" fill-rule="nonzero" stroke-linecap="butt" stroke-linejoin="miter" stroke-miterlimit="10" stroke-dasharray="" stroke-dashoffset="0" style="mix-blend-mode: normal"><g fill="none" stroke="none" stroke-width="1"><path d="M10.39708,-8.33152"/><path d="M10.39708,-8.33152"/></g><path d="M10.39708,-8.33152" fill="none" stroke="none" stroke-width="1"/><path d="M10.39708,-8.33152" fill="none" stroke="none" stroke-width="1"/><g fill="none" stroke="none" stroke-width="1"><path d="M10.39708,-8.33152"/><path d="M10.39708,-8.33152"/></g><path d="M10.39708,-8.33152" fill="none" stroke="none" stroke-width="1"/><g fill="none" stroke="none" stroke-width="1"><path d="M10.39708,-8.33152"/><path d="M10.39708,-8.33152"/><path d="M10.39708,-8.33152"/><path d="M10.39708,-8.33152"/><path d="M10.39708,-8.33152"/><path d="M10.39708,-8.33152"/><path d="M10.39708,-8.33152"/><path d="M10.39708,-8.33152"/><g><path d="M10.39708,-8.33152"/><path d="M10.39708,-8.33152"/></g><g><path d="M10.39708,-8.33152"/><path d="M10.39708,-8.33152"/></g></g><path d="M287.39708,180.06848c0,25.4 -21.2,45.9 -47.4,45.9c-26.2,0 -47.4,-20.6 -47.4,-45.9c0,-25.3 21.2,-45.9 47.4,-45.9c26.2,0 47.4,20.5 47.4,45.9z" fill="#ffffff" stroke="#ffffff" stroke-width="8"/><path d="M228.99708,161.96848c-0.6,2.9 -3.4,2.3 -3.4,2.3l-2.1,-1.3c-1.8,-1.3 -3.9,-1.6 -6,-1.6c0.3,0.9 0.4,1.8 0.4,2.8c0,4.7 -3.6,8.5 -8,8.5c-4.4,0 -8,-3.8 -8,-8.5c0,-2 0.6,-3.8 1.7,-5.3c-0.6,-0.2 -1.2,-0.3 -1.8,-0.4c0,0 -2.8,-0.4 -2.4,-3.3c0.3,-3 3.1,-2.6 3.1,-2.6c3.3,0.4 5.6,1.7 8.6,2.8c2.6,0.9 6.4,-0.1 9.2,0.1c2.4,0.2 4.2,1.1 6.2,2.6l0.2,0.4c0.2,-0.1 3,0.5 2.3,3.5z" fill="#ffffff" stroke="none" stroke-width="1"/><path d="M285.19708,167.06848c0,3 -2.9,3 -2.9,3l-1.6,-1.1c-0.7,-0.4 -1.3,-0.6 -1.9,-0.7c0.4,1 0.7,2.2 0.7,3.4c0,4.7 -3.6,8.5 -8,8.5c-4.4,0 -8,-3.8 -8,-8.5c0,-0.5 0,-0.9 0.1,-1.3c-4.1,0.5 -8.2,0.1 -12.3,-0.7c0,0 -2.8,-0.5 -2.3,-3.5c0.5,-3 3.2,-2.5 3.2,-2.5c3.3,0.6 6.6,1 10,0.8c4.6,-0.3 8.8,-2.4 13.3,-2.5c2.9,0 4.9,0.1 7.6,1.6l-0.8,0.5c0.1,0 2.9,0 2.9,3z" fill="#ffffff" stroke="none" stroke-width="1"/><path d="M260.39708,178.56848c-0.4,3 -3.2,2.5 -3.2,2.5l-1.3,-0.5c-3.2,-1.1 -6.8,-2.5 -10.1,-3c-8.6,-1.6 -17.3,0.6 -25.8,-2.4c0,0 -2.7,-0.9 -1.8,-3.8c0.9,-2.8 3.6,-1.9 3.6,-1.9c8.1,2.9 16.5,1 24.8,2.1c3.6,0.6 7.6,2.1 11.1,3.3l0.3,0.2c0,0.1 2.8,0.6 2.4,3.5z" fill="#ffffff" stroke="none" stroke-width="1"/></g></g></svg>